<?xml version="1.0" standalone="no"?>
<!DOCTYPE svg PUBLIC "-//W3C//DTD SVG 20010904//EN"
 "http://www.w3.org/TR/2001/REC-SVG-20010904/DTD/svg10.dtd">
<svg version="1.0" xmlns="http://www.w3.org/2000/svg"
 width="640.000000pt" height="640.000000pt" viewBox="0 0 640.000000 640.000000"
 preserveAspectRatio="xMidYMid meet">
<metadata>
Created by potrace 1.14, written by Peter Selinger 2001-2017
</metadata>
<g transform="translate(0.000000,640.000000) scale(0.100000,-0.100000)"
fill="#000000" stroke="none">
<path d="M420 6397 c3 -3 21 -8 40 -11 118 -19 193 -55 224 -107 22 -37 20
-62 -7 -103 -19 -27 -23 -44 -20 -79 l4 -45 -83 20 c-151 36 -297 11 -390 -67
-36 -30 -30 -32 24 -4 22 11 64 23 94 26 45 5 59 2 97 -20 58 -34 79 -69 84
-137 8 -117 46 -181 134 -225 57 -29 68 -47 66 -101 -2 -44 -31 -95 -92 -159
-52 -55 -68 -96 -60 -160 l6 -53 -53 -47 c-29 -26 -70 -59 -91 -73 -20 -14
-36 -27 -33 -29 10 -10 103 -12 137 -3 20 6 55 28 78 50 23 22 47 40 54 40 7
0 34 7 59 15 37 13 49 23 63 55 15 33 23 40 46 40 24 0 34 -10 67 -67 96 -164
153 -306 187 -458 10 -44 19 -84 20 -90 2 -9 6 -22 23 -65 3 -8 6 -17 6 -20 1
-3 13 -27 26 -55 23 -46 130 -165 148 -165 4 0 7 39 6 88 -2 48 0 103 4 121
l8 35 41 -38 c45 -40 118 -145 155 -221 12 -25 25 -45 29 -45 10 0 38 86 45
143 4 26 10 49 13 52 4 2 21 -3 38 -12 33 -15 41 -32 78 -153 39 -128 114
-197 226 -208 l49 -5 -33 -40 c-42 -54 -241 -252 -296 -297 -25 -19 -49 -40
-55 -45 -12 -11 -18 -15 -112 -81 -231 -161 -455 -211 -608 -135 -65 32 -141
103 -171 160 -18 36 -18 48 13 176 40 170 -13 240 -176 236 -38 -1 -54 3 -58
13 -10 27 -89 49 -179 50 -47 1 -85 -1 -85 -4 0 -3 28 -15 63 -28 34 -12 77
-35 96 -51 l33 -27 -16 -56 c-29 -99 -18 -129 68 -198 41 -33 54 -50 51 -65
-2 -11 -4 -25 -4 -31 -1 -6 -19 -14 -40 -18 -26 -4 -47 -16 -64 -35 -14 -17
-27 -27 -31 -24 -7 8 -118 7 -148 -2 -37 -10 -118 -48 -118 -55 0 -6 19 -7
157 -9 l52 -1 21 -48 c31 -71 68 -88 200 -95 58 -3 118 -11 133 -18 39 -18 65
-80 71 -169 5 -86 10 -103 43 -148 29 -38 85 -69 145 -78 95 -15 131 -61 129
-168 l-1 -61 29 50 c58 101 72 205 38 271 -22 43 -82 99 -128 119 l-38 18 22
17 c44 35 212 102 287 115 188 33 334 -57 405 -247 10 -27 21 -48 25 -48 12 0
40 112 40 158 0 23 3 42 8 42 14 0 156 -87 235 -144 43 -31 80 -56 82 -56 13
0 -31 107 -98 239 -101 198 -103 206 -72 237 31 31 64 31 157 -1 40 -14 78
-25 84 -25 9 0 8 28 -8 134 -3 18 4 19 101 18 57 0 109 2 115 4 6 2 12 20 13
40 2 49 10 53 36 19 93 -122 261 -233 477 -318 36 -14 119 -46 185 -72 272
-107 505 -242 695 -405 71 -61 179 -171 180 -183 0 -4 -28 7 -62 24 -115 58
-320 139 -483 189 -55 17 -126 40 -157 49 -70 22 -76 13 -10 -13 246 -99 831
-433 840 -479 10 -49 -7 -47 -85 10 -200 144 -379 179 -537 103 -67 -32 -155
-110 -182 -162 -48 -92 -67 -285 -39 -398 10 -40 18 -93 18 -119 1 -52 -11
-149 -19 -163 -12 -18 -48 -24 -98 -16 -28 4 -67 10 -88 13 -39 5 -171 28
-255 44 -75 15 -206 49 -301 78 -94 29 -99 37 -84 121 36 197 -51 394 -188
428 -44 11 -49 11 -82 13 -16 0 -27 4 -26 9 5 19 -17 80 -39 110 -43 58 -153
97 -278 100 l-30 1 25 -11 c137 -57 202 -107 216 -165 4 -16 0 -48 -12 -82
-24 -71 -24 -129 2 -163 21 -29 84 -65 132 -74 33 -7 39 -17 41 -78 1 -22 4
-43 7 -48 8 -13 -2 -10 -48 14 -48 25 -137 35 -191 20 -32 -9 -38 -8 -47 8
-17 31 -86 51 -171 49 -42 -1 -82 -5 -88 -8 -6 -4 21 -15 59 -25 79 -20 145
-49 177 -78 18 -17 20 -24 11 -49 -8 -25 -8 -48 2 -136 0 -1 14 -18 30 -37 35
-39 97 -64 178 -70 44 -3 59 -9 85 -36 36 -37 107 -75 169 -90 24 -6 50 -13
58 -15 8 -2 18 -4 22 -4 4 -1 5 -27 2 -60 -7 -70 16 -131 72 -193 33 -37 35
-43 31 -91 -2 -29 -12 -69 -20 -90 -9 -20 -13 -37 -10 -37 4 0 24 12 45 26 34
24 78 93 78 123 0 7 22 33 48 59 57 56 75 108 75 215 0 40 4 75 9 78 8 5 89
-3 148 -16 14 -3 37 -7 52 -10 91 -17 287 -109 400 -188 33 -23 75 -52 93 -64
19 -12 36 -27 40 -33 25 -40 37 29 41 230 2 85 3 161 4 168 1 26 20 9 78 -68
62 -83 192 -233 198 -227 2 1 -5 36 -16 77 -36 141 -42 196 -43 353 -1 162 6
171 71 101 67 -73 184 -204 200 -223 12 -14 12 -14 8 4 -8 30 -16 109 -21 225
-6 124 2 147 51 136 83 -18 141 -87 180 -215 14 -47 33 -99 42 -116 8 -16 74
-88 147 -160 191 -188 215 -247 170 -417 -13 -51 -27 -104 -31 -118 -8 -33 61
61 82 110 25 58 43 151 46 235 l3 80 76 1 c288 5 549 -161 722 -461 97 -168
115 -262 66 -342 -22 -35 -22 -36 -78 -29 -31 3 -72 8 -91 11 -19 3 -64 6
-100 7 -167 1 -236 -60 -254 -226 -3 -26 -26 -96 -51 -154 -24 -58 -43 -107
-42 -109 2 -1 31 38 65 87 35 50 68 90 75 91 7 0 30 0 53 -1 38 -1 124 25 124
39 0 3 4 12 8 19 7 10 18 8 52 -7 24 -11 48 -18 52 -15 4 3 1 -14 -8 -38 -28
-81 -28 -102 5 -137 18 -19 39 -31 55 -31 15 0 26 -6 26 -14 0 -23 67 -85 112
-105 43 -18 98 -34 98 -28 0 1 -19 23 -42 47 -73 79 -96 130 -58 130 34 0 80
29 90 56 6 14 10 50 10 80 0 70 20 109 68 132 68 32 103 16 213 -99 88 -91
132 -118 184 -112 17 2 63 5 103 7 71 4 72 4 87 -24 8 -16 15 -38 15 -49 0
-11 4 -23 10 -26 6 -4 9 25 7 78 -3 70 -8 92 -30 130 -44 74 -76 97 -257 176
-52 23 -123 58 -158 77 -51 29 -61 38 -53 52 4 9 6 23 4 30 -3 8 10 12 46 12
31 0 51 4 51 11 0 30 -69 135 -138 209 -79 85 -91 103 -98 155 -28 186 -110
387 -177 432 -29 19 -189 77 -241 87 -208 39 -287 97 -376 274 -23 45 -43 88
-44 95 -2 6 -6 19 -9 27 -22 55 -44 151 -36 156 6 3 42 0 82 -7 229 -39 420
11 539 141 67 73 67 74 102 140 57 110 99 289 99 420 0 118 -37 341 -63 375
-4 6 -13 28 -20 50 -7 22 -91 198 -187 392 -95 193 -173 353 -173 356 0 2 -26
60 -59 128 -56 119 -160 353 -216 489 -15 36 -33 79 -40 95 -59 135 -139 385
-164 515 -6 30 -13 69 -17 85 -13 64 -13 311 1 386 37 207 157 401 291 469 39
21 62 25 128 25 70 0 89 -4 139 -29 131 -67 205 -181 205 -318 0 -119 -30
-220 -60 -202 -5 3 -21 34 -37 68 -18 39 -42 73 -63 90 -42 31 -111 46 -153
33 -39 -12 -90 -61 -111 -105 -15 -33 -21 -133 -11 -177 3 -11 6 -24 6 -28 2
-21 56 -57 86 -57 55 0 60 -21 16 -67 -51 -52 -67 -108 -51 -180 9 -43 17 -56
46 -73 51 -32 57 -50 40 -115 -22 -84 -17 -188 12 -270 35 -101 109 -219 186
-300 l19 -20 -8 20 c-50 132 -67 219 -67 332 2 147 34 260 126 438 97 189 123
257 152 405 13 64 7 214 -10 293 -57 253 -231 399 -460 384 -289 -18 -483
-212 -562 -562 -21 -92 -24 -315 -6 -405 7 -30 14 -68 17 -85 11 -68 16 -92
27 -130 6 -22 13 -49 15 -60 6 -34 132 -401 148 -431 8 -16 15 -32 15 -36 0
-10 116 -281 166 -387 24 -51 44 -95 44 -97 0 -1 27 -61 61 -131 178 -374 272
-572 329 -698 65 -142 101 -295 106 -445 9 -277 -107 -453 -345 -524 -102 -30
-226 -15 -323 39 -26 14 -82 60 -125 102 -78 75 -133 120 -133 108 0 -3 -12 2
-27 13 -16 11 -39 23 -53 27 -101 31 -327 175 -530 339 -107 86 -354 336 -431
436 -178 230 -315 478 -402 730 -29 86 -67 213 -74 249 -2 13 -6 28 -9 32 -10
17 14 17 52 0 22 -10 51 -33 65 -51 75 -101 113 -123 237 -135 81 -7 143 -37
187 -88 41 -47 47 -30 14 36 -30 58 -92 114 -168 149 -88 41 -113 61 -181 148
-32 41 -75 91 -95 110 -20 19 -74 76 -118 125 -74 81 -77 86 -32 50 28 -22 55
-44 62 -50 7 -5 19 -16 27 -22 8 -7 20 -13 26 -13 5 0 10 -3 10 -8 0 -16 119
-71 217 -101 68 -21 118 -43 148 -66 48 -37 53 -34 31 18 -22 51 -71 93 -164
139 -74 36 -103 58 -192 149 -58 58 -127 121 -153 140 -100 71 -100 71 -25 50
38 -10 86 -31 109 -47 101 -71 123 -83 172 -92 29 -6 66 -13 82 -16 17 -4 64
-23 107 -44 l76 -37 -14 26 c-20 40 -106 111 -199 166 -65 38 -84 54 -89 76
-11 55 -62 142 -109 186 -41 40 -147 113 -180 124 -6 2 -7 8 -3 15 4 7 28 11
57 10 59 -1 78 17 79 72 0 38 -25 85 -71 134 -16 17 -45 58 -64 92 -39 70 -79
109 -184 179 -40 27 -85 66 -98 86 -15 22 -40 43 -66 54 -23 9 -61 25 -85 36
-23 10 -54 19 -69 19 -15 0 -41 14 -64 35 -22 19 -46 36 -54 36 -8 1 -19 3
-25 4 -5 1 -29 3 -52 4 -39 2 -45 6 -71 47 -36 56 -80 81 -113 64 -24 -14 -54
-75 -54 -113 0 -26 -38 -67 -62 -67 -14 0 -48 -30 -48 -43 0 -3 18 -27 40 -52
22 -25 40 -50 40 -54 0 -13 73 -48 115 -56 47 -8 101 -39 116 -66 14 -27 19
-65 24 -189 3 -58 7 -119 10 -137 11 -72 -33 -105 -120 -89 -46 9 -101 66
-110 114 -8 47 -55 140 -73 147 -24 9 -38 -11 -67 -93 -15 -42 -43 -107 -61
-144 l-34 -68 24 0 c46 0 87 24 118 68 16 23 16 23 52 -43 29 -53 37 -78 38
-126 2 -50 5 -59 20 -59 11 0 29 11 42 25 42 46 86 31 86 -29 0 -42 1 -43 35
-44 120 -5 210 -74 233 -179 30 -135 -182 -280 -389 -267 -185 12 -415 97
-602 221 -90 61 -211 181 -271 272 -51 77 -147 266 -191 376 -45 114 -85 234
-85 255 0 12 16 47 37 78 105 165 119 276 43 352 -24 24 -51 40 -76 44 -23 5
-52 21 -72 41 -34 32 -87 64 -147 86 -31 11 -234 26 -225 16z m2068 -504 c6
-9 12 -40 13 -67 1 -28 2 -63 3 -78 2 -15 -1 -25 -6 -22 -4 3 -8 11 -8 18 0 7
-13 25 -29 40 -22 21 -29 37 -29 64 0 26 -7 42 -23 56 l-24 19 45 -7 c25 -4
51 -14 58 -23z"/>
<path d="M1405 5878 c-46 -10 -70 -28 -38 -28 16 0 25 -10 33 -37 23 -71 73
-154 101 -169 42 -21 75 -17 148 17 89 43 166 47 237 12 57 -27 167 -126 209
-188 20 -29 25 -33 20 -15 -27 91 -131 213 -226 264 -29 16 -92 36 -139 46
-47 10 -98 24 -115 31 -16 7 -32 13 -35 14 -3 1 -25 11 -50 23 -67 33 -100 39
-145 30z"/>
</g>
</svg>
